<svg xmlns="http://www.w3.org/2000/svg" width="180" height="60" viewBox="0 0 180 60">
  <defs>
    <style>
      .cls-1 {
        fill: #1668b2;
        fill-rule: evenodd;
      }
    </style>
  </defs>
  <path id="icon" class="cls-1" d="M178,45h-6c0,3.771-3.215,6-7,6s-7-2.229-7-6H143l-0.01,0c-1.933,0-3.99,0-3.99,0,0,3.771-3.215,6-7,6s-7-2.229-7-6h-3a1.361,1.361,0,0,1-1-1V33a3.276,3.276,0,0,1,1-2l6-9a3.127,3.127,0,0,1,1-1h13V9a1.36,1.36,0,0,1,1-1h35a1.36,1.36,0,0,1,1,1V44A1.36,1.36,0,0,1,178,45Zm-50-.986A3.633,3.633,0,0,0,132,48a4.388,4.388,0,0,0,4-3.985c0,0.11,0,.213,0-0.015,0-.2,0-0.113,0-0.012C136,42.9,134.529,40,132,40a4.245,4.245,0,0,0-4,3.991c0-.058,0-0.069,0,0.009C128.009,45.407,128,44.308,128,44.014ZM142,24H130l-6,9v9h1c0.758-3.062,3.837-5,7-5s6.242,1.94,7,5h3V24Zm23,24a4.32,4.32,0,0,0,4-4c-0.118.243-.061,0.078,0-0.059A3.932,3.932,0,0,0,165,40a4.2,4.2,0,0,0-4,4A4.481,4.481,0,0,0,165,48Zm11-37H145V21a1.715,1.715,0,0,1-.136.666A0.5,0.5,0,0,1,145,22v1.265c0.008,0.352,0,.636,0,0.735V42h13c0.757-3.06,3.836-5,7-5s6.834,1.85,7,5h4V11Zm-5,9H156c-1.2,0-1.2-3,0-3h15C172.2,17,172.2,20,171,20ZM128,44.014s0-.009,0-0.014,0-.006,0-0.009v0.023ZM136,44s0,0.01,0,.015V43.988S136,44,136,44Z"/>
  <path id="icon-2" data-name="icon" class="cls-1" d="M106,47H96c-1.122,0-4-2.851-4-4V35c0-1.149,2.878-4,4-4h10c1.123,0,4,2.852,4,4v8C110,44.149,107.123,47,106,47Zm1-12a1.07,1.07,0,0,0-1-1H96a1.07,1.07,0,0,0-1,1v8a1.069,1.069,0,0,0,1,1h10a1.069,1.069,0,0,0,1-1V35Zm-8-7V27H81v1c0,1.19-3,1.19-3,0V25a0.727,0.727,0,0,1,.4-0.609A0.724,0.724,0,0,1,79,24h22a0.725,0.725,0,0,1,.605.391A0.726,0.726,0,0,1,102,25v3C102,29.19,99,29.19,99,28Zm-4-6H85c-1.122,0-4-2.85-4-4V11c0-1.149,2.878-4,4-4H95c1.123,0,4,2.852,4,4v7C99,19.149,96.123,22,95,22Zm1-11a1.069,1.069,0,0,0-1-1H85a1.07,1.07,0,0,0-1,1s-0.453,7.719,0,7a1.133,1.133,0,0,0,1,1H95c0.728,0.029.985-.088,1-1C96.033,16.533,96,11,96,11ZM88,35s-0.011,5.725,0,8a6.616,6.616,0,0,1-4,4c-1.432-.015-10,0-10,0-1.122,0-4-2.851-4-4V35c0-1.149,2.878-4,4-4H84C85.122,31,88,33.852,88,35ZM73,35v8a1.069,1.069,0,0,0,1,1H84a1.069,1.069,0,0,0,1-1V35a1.07,1.07,0,0,0-1-1H74A1.07,1.07,0,0,0,73,35Zm2,14h7c1.189,0,1.189,3,0,3H75C73.812,52,73.812,49,75,49Zm23,0h7c1.188,0,1.188,3,0,3H98C96.812,52,96.812,49,98,49Z"/>
  <path id="icon-3" data-name="icon" class="cls-1" d="M47,52H13a1.366,1.366,0,0,1-1-1V31c0-3.93,2-6,6-6H42c3.875,0,6,2.063,6,6V51A1.609,1.609,0,0,1,47,52ZM45,31a2.808,2.808,0,0,0-3-3H18a2.75,2.75,0,0,0-3,3V49h5V39c0-1.188,3-1.188,3,0V49H37V39c0-1.188,3-1.188,3,0V49h5V31ZM21,16c0-4.437,4.585-9,9-9s9,4.563,9,9-4.585,9-9,9S21,20.438,21,16Zm9,6c3.8,0,6-2.179,6-6s-2.2-6-6-6-6,2.18-6,6S26.2,22,30,22Z"/>
</svg>
